<svg aria-hidden="true" style="position: absolute; width: 0; height: 0; overflow: hidden;" version="1.1" xmlns="http://www.w3.org/2000/svg" xmlns:xlink="http://www.w3.org/1999/xlink">
<defs>
<symbol id="icon-facebook-icon" viewBox="0 0 32 32">
<path fill="#fff" style="fill: var(--color1, #fff)" d="M32 16c0-8.837-7.163-16-16-16s-16 7.163-16 16c0 7.986 5.851 14.605 13.501 15.805v-11.179h-4.064v-4.626h4.064v-3.525c0-4.010 2.387-6.224 6.043-6.224 1.749 0 3.581 0.312 3.581 0.312v3.936h-2.016c-1.989 0-2.608 1.234-2.608 2.501v3h4.437l-0.709 4.624h-3.728v11.181c7.648-1.2 13.499-7.819 13.499-15.805z"></path>
</symbol>
<symbol id="icon-instagram-icon" viewBox="0 0 32 32">
<path fill="#fff" style="fill: var(--color1, #fff)" d="M16 2.88c4.275 0 4.781 0.019 6.464 0.096 1.562 0.067 2.405 0.33 2.968 0.549 0.742 0.288 1.28 0.638 1.837 1.194 0.563 0.563 0.906 1.094 1.194 1.838 0.219 0.562 0.48 1.411 0.55 2.968 0.075 1.688 0.093 2.194 0.093 6.464 0 4.274-0.018 4.779-0.093 6.461-0.069 1.563-0.331 2.406-0.55 2.97-0.288 0.744-0.637 1.28-1.194 1.837-0.503 0.518-1.116 0.925-1.803 1.182l-0.034 0.011c-0.563 0.219-1.413 0.482-2.97 0.55-1.688 0.075-2.194 0.094-6.462 0.094-4.275 0-4.781-0.019-6.464-0.094-1.562-0.069-2.405-0.331-2.968-0.55-0.742-0.288-1.28-0.637-1.837-1.194-0.518-0.503-0.925-1.116-1.182-1.803l-0.011-0.034c-0.219-0.563-0.48-1.413-0.55-2.97-0.075-1.686-0.093-2.192-0.093-6.462 0-4.275 0.018-4.781 0.093-6.462 0.069-1.562 0.331-2.406 0.55-2.968 0.288-0.744 0.637-1.282 1.194-1.838 0.503-0.518 1.116-0.925 1.803-1.182l0.034-0.011c0.563-0.219 1.413-0.48 2.97-0.55 1.68-0.074 2.187-0.093 6.462-0.093zM16 0c-4.344 0-4.888 0.019-6.594 0.094-1.701 0.074-2.869 0.349-3.882 0.742-1.111 0.424-2.057 1.054-2.835 1.85l-0.001 0.001c-0.796 0.779-1.425 1.723-1.833 2.778l-0.018 0.054c-0.394 1.016-0.669 2.178-0.741 3.878-0.077 1.714-0.096 2.258-0.096 6.602s0.019 4.888 0.094 6.594c0.074 1.701 0.349 2.869 0.742 3.882 0.413 1.056 0.957 1.95 1.851 2.837 0.779 0.794 1.723 1.421 2.778 1.827l0.054 0.018c1.018 0.394 2.179 0.669 3.88 0.744 1.706 0.074 2.25 0.093 6.594 0.093s4.888-0.019 6.594-0.093c1.701-0.075 2.869-0.352 3.882-0.744 1.108-0.424 2.053-1.051 2.831-1.844l0.001-0.001c0.793-0.779 1.42-1.724 1.825-2.778l0.018-0.054c0.394-1.018 0.669-2.181 0.744-3.88 0.075-1.706 0.093-2.25 0.093-6.594s-0.018-4.888-0.093-6.594c-0.075-1.701-0.352-2.869-0.744-3.882-0.408-1.116-1.033-2.067-1.83-2.841l-0.002-0.002c-0.779-0.794-1.724-1.421-2.778-1.827l-0.054-0.018c-1.016-0.394-2.179-0.667-3.878-0.744-1.714-0.080-2.258-0.099-6.602-0.099z"></path>
<path fill="#fff" style="fill: var(--color1, #fff)" d="M16 7.781c-4.539 0.001-8.218 3.68-8.219 8.219v0c0.111 4.454 3.748 8.022 8.218 8.022s8.107-3.568 8.218-8.012l0-0.010c0-4.538-3.68-8.219-8.218-8.219zM16 21.331c-0.027 0-0.059 0.001-0.092 0.001-2.945 0-5.333-2.388-5.333-5.333s2.388-5.333 5.333-5.333c0.033 0 0.065 0 0.098 0.001l-0.005-0c2.905 0.052 5.24 2.42 5.24 5.332s-2.336 5.281-5.236 5.332l-0.005 0zM26.464 7.456c0 1.060-0.86 1.92-1.92 1.92s-1.92-0.86-1.92-1.92v0c0-1.060 0.86-1.92 1.92-1.92s1.92 0.86 1.92 1.92v0z"></path>
</symbol>
<symbol id="icon-linkedin-icon" viewBox="0 0 32 32">
<path fill="#fff" style="fill: var(--color1, #fff)" d="M29.632 0h-27.269c-1.307 0-2.363 1.032-2.363 2.306v27.382c0 1.275 1.056 2.312 2.363 2.312h27.269c1.306 0 2.368-1.037 2.368-2.306v-27.39c0-1.272-1.062-2.304-2.368-2.304zM9.494 27.269h-4.752v-15.275h4.752v15.275zM7.118 9.912c-0.021 0.001-0.046 0.001-0.071 0.001-1.52 0-2.752-1.232-2.752-2.752s1.232-2.752 2.752-2.752c0.022 0 0.043 0 0.065 0.001l-0.003-0c0.001 0 0.003 0 0.005 0 1.52 0 2.752 1.232 2.752 2.752 0 1.518-1.229 2.749-2.747 2.752h-0zM27.269 27.269h-4.744v-7.424c0-1.77-0.032-4.051-2.469-4.051-2.469 0-2.843 1.931-2.843 3.925v7.55h-4.738v-15.275h4.55v2.088h0.062c0.63-1.2 2.181-2.469 4.486-2.469 4.806 0 5.694 3.162 5.694 7.275v8.381z"></path>
</symbol>
</defs>
</svg>
